# xmcd CD database file
#
# Track frame offsets:
#	150
#	9102
#	36449
#	71613
#	92339
#	129572
#	177561
#	191240
#	215734
#	229691
#	246658
#	298701
#	325580
#	339696
#
# Disc length: 4663 seconds
#
# Revision: 0
# Processed by: cddbd v1.5.2PL0 Copyright (c) Steve Scherf et al.
# Submitted via: CDex 1.51
#
DISCID=d412350e
DTITLE=Bertina Henrichs - Ein Garten am Meer
DYEAR=2011
DGENRE=Hörbuch
TTITLE0=Ein Garten am Meer 17
TTITLE1=Ein Garten am Meer 18
TTITLE2=Ein Garten am Meer 19
TTITLE3=Ein Garten am Meer 20
TTITLE4=Ein Garten am Meer 21
TTITLE5=Ein Garten am Meer 22
TTITLE6=Ein Garten am Meer 23
TTITLE7=Ein Garten am Meer 24
TTITLE8=Ein Garten am Meer 25
TTITLE9=Ein Garten am Meer 26
TTITLE10=Ein Garten am Meer 27
TTITLE11=Ein Garten am Meer 28
TTITLE12=Ein Garten am Meer 29
TTITLE13=Ein Garten am Meer 30
EXTD=YEAR: 2011
EXTT0=
EXTT1=
EXTT2=
EXTT3=
EXTT4=
EXTT5=
EXTT6=
EXTT7=
EXTT8=
EXTT9=
EXTT10=
EXTT11=
EXTT12=
EXTT13=
PLAYORDER=
